<svg width="33" height="33" viewBox="0 0 33 33" fill="none" xmlns="http://www.w3.org/2000/svg">
<path fill-rule="evenodd" clip-rule="evenodd" d="M3.25031 1.38187C3.25031 1.17097 3.42854 1 3.6484 1H32.3115C32.5314 1 32.7096 1.17097 32.7096 1.38187V29.0039C32.7096 29.2148 32.5314 29.3858 32.3115 29.3858C32.0916 29.3858 31.9134 29.2148 31.9134 29.0039V1.76374H3.6484C3.42854 1.76374 3.25031 1.59277 3.25031 1.38187Z" fill="white" stroke="white" stroke-width="0.5" stroke-linecap="round" stroke-linejoin="round"/>
<path d="M3.6681 29.5623L3.7931 29.5623L3.7931 29.4373L3.79309 5.67856L5.41897 7.30443C5.62202 7.50749 5.95124 7.50749 6.1543 7.30443C6.35735 7.10138 6.35735 6.77216 6.1543 6.5691L3.6408 4.0556C3.43775 3.85255 3.10853 3.85255 2.90547 4.0556L0.391976 6.5691C0.18892 6.77216 0.18892 7.10138 0.391976 7.30443C0.595033 7.50749 0.924251 7.50749 1.12731 7.30443L2.75318 5.67856L2.75318 29.4373L2.75318 29.5623L2.87818 29.5623L3.6681 29.5623Z" fill="white" stroke="white" stroke-width="0.25"/>
<path d="M2.7522 29.8314V29.9564H2.8772L26.7603 29.9564L25.1262 31.5821C24.922 31.7852 24.922 32.1147 25.1262 32.3179C25.33 32.5206 25.6602 32.5206 25.864 32.3179L28.3906 29.8044C28.5947 29.6013 28.5947 29.2717 28.3906 29.0686L25.864 26.5551C25.6602 26.3523 25.33 26.3523 25.1262 26.5551C24.922 26.7582 24.922 27.0878 25.1262 27.2909L26.7603 28.9165L2.8772 28.9165H2.7522V29.0415V29.8314Z" fill="white" stroke="white" stroke-width="0.25"/>
<path fill-rule="evenodd" clip-rule="evenodd" d="M32.3306 1.24733C32.4849 1.40157 32.4849 1.65165 32.3306 1.80589L9.68638 24.4501C9.53214 24.6044 9.28207 24.6044 9.12783 24.4501C8.97359 24.2959 8.97359 24.0458 9.12783 23.8916L31.7721 1.24733C31.9263 1.09309 32.1764 1.09309 32.3306 1.24733Z" fill="white" stroke="white" stroke-width="0.5" stroke-linecap="round" stroke-linejoin="round"/>
</svg>
